<?xml version="1.0" encoding="UTF-8" standalone="no"?>
<svg
   xmlns:dc="http://purl.org/dc/elements/1.1/"
   xmlns:cc="http://creativecommons.org/ns#"
   xmlns:rdf="http://www.w3.org/1999/02/22-rdf-syntax-ns#"
   xmlns:svg="http://www.w3.org/2000/svg"
   xmlns="http://www.w3.org/2000/svg"
   xmlns:sodipodi="http://sodipodi.sourceforge.net/DTD/sodipodi-0.dtd"
   xmlns:inkscape="http://www.inkscape.org/namespaces/inkscape"
   id="Capa_1"
   enable-background="new 0 0 512 512"
   height="512"
   viewBox="0 0 512 512"
   width="512"
   version="1.1"
   sodipodi:docname="horizontal_bar_grouped.svg"
   inkscape:version="0.92.4 (5da689c313, 2019-01-14)">
  <metadata
     id="metadata39">
    <rdf:RDF>
      <cc:Work
         rdf:about="">
        <dc:format>image/svg+xml</dc:format>
        <dc:type
           rdf:resource="http://purl.org/dc/dcmitype/StillImage" />
      </cc:Work>
    </rdf:RDF>
  </metadata>
  <defs
     id="defs37" />
  <sodipodi:namedview
     pagecolor="#ffffff"
     bordercolor="#666666"
     borderopacity="1"
     objecttolerance="10"
     gridtolerance="10"
     guidetolerance="10"
     inkscape:pageopacity="0"
     inkscape:pageshadow="2"
     inkscape:window-width="1920"
     inkscape:window-height="1009"
     id="namedview35"
     showgrid="false"
     inkscape:zoom="0.4609375"
     inkscape:cx="256"
     inkscape:cy="256"
     inkscape:window-x="-8"
     inkscape:window-y="-8"
     inkscape:window-maximized="1"
     inkscape:current-layer="g32" />
  <g
     id="g32">
    <g
       id="g4564"
       transform="rotate(90,256,256)">
      <path
         id="path2"
         d="m 226,90.333 -15,30 V 474.5 l 15,30 h 30 l 15,-30 V 90.333 Z"
         inkscape:connector-curvature="0"
         style="fill:#3a6fd8" />
      <path
         id="path4"
         d="M 183.167,90.333 H 226 V 504.5 h -42.833 z"
         inkscape:connector-curvature="0"
         style="fill:#3b88f5" />
      <path
         id="path6"
         d="m 298.833,7.5 -15,15 v 467 l 15,15 h 30 V 7.5 Z"
         inkscape:connector-curvature="0"
         style="fill:#61ce5b" />
      <path
         id="path8"
         d="m 256,7.5 h 42.833 v 497 H 256 Z"
         inkscape:connector-curvature="0"
         style="fill:#94e368" />
      <path
         id="path10"
         d="m 80.333,504.5 h -30 l -30,-82.833 30,-82.834 h 75 z"
         inkscape:connector-curvature="0"
         style="fill:#3a6fd8" />
      <path
         id="path12"
         d="M 7.5,338.833 H 50.333 V 504.5 H 7.5 Z"
         inkscape:connector-curvature="0"
         style="fill:#3b88f5" />
      <path
         id="path14"
         d="m 123.167,256 -15,15 v 218.5 l 15,15 h 30 V 256 Z"
         inkscape:connector-curvature="0"
         style="fill:#61ce5b" />
      <path
         id="path16"
         d="m 80.333,256 h 42.833 V 504.5 H 80.333 Z"
         inkscape:connector-curvature="0"
         style="fill:#94e368" />
      <path
         id="path18"
         d="m 431.667,504.5 h -30 l -30,-82.833 30,-82.834 h 75 z"
         inkscape:connector-curvature="0"
         style="fill:#3a6fd8" />
      <path
         id="path20"
         d="m 358.833,338.833 h 42.833 V 504.5 h -42.833 z"
         inkscape:connector-curvature="0"
         style="fill:#3b88f5" />
      <path
         id="path22"
         d="m 474.5,256 -15,15 v 218.5 l 15,15 h 30 V 256 Z"
         inkscape:connector-curvature="0"
         style="fill:#61ce5b" />
      <path
         id="path24"
         d="M 431.667,256 H 474.5 v 248.5 h -42.833 z"
         inkscape:connector-curvature="0"
         style="fill:#94e368" />
      <path
         id="path26"
         d="M 153.167,248.5 H 80.333 c -4.143,0 -7.5,3.358 -7.5,7.5 v 75.333 H 7.5 c -4.143,0 -7.5,3.358 -7.5,7.5 V 504.5 c 0,4.142 3.357,7.5 7.5,7.5 h 145.667 c 4.143,0 7.5,-3.358 7.5,-7.5 V 256 c 0,-4.142 -3.357,-7.5 -7.5,-7.5 z M 72.833,497 H 15 V 346.333 h 57.833 z m 72.834,0 H 87.833 V 263.5 h 57.834 z"
         inkscape:connector-curvature="0" />
      <path
         id="path28"
         d="m 504.5,248.5 h -72.833 c -4.143,0 -7.5,3.358 -7.5,7.5 v 75.333 h -65.334 c -4.143,0 -7.5,3.358 -7.5,7.5 V 504.5 c 0,4.142 3.357,7.5 7.5,7.5 H 504.5 c 4.143,0 7.5,-3.358 7.5,-7.5 V 256 c 0,-4.142 -3.357,-7.5 -7.5,-7.5 z M 424.167,497 H 366.333 V 346.333 h 57.834 z M 497,497 H 439.167 V 263.5 H 497 Z"
         inkscape:connector-curvature="0" />
      <path
         id="path30"
         d="M 328.833,0 H 256 c -4.143,0 -7.5,3.358 -7.5,7.5 v 75.333 h -65.333 c -4.143,0 -7.5,3.358 -7.5,7.5 V 504.5 c 0,4.142 3.357,7.5 7.5,7.5 h 145.666 c 4.143,0 7.5,-3.358 7.5,-7.5 V 7.5 c 0,-4.142 -3.357,-7.5 -7.5,-7.5 z m -7.5,497 H 263.5 V 312.417 c 0,-4.142 -3.357,-7.5 -7.5,-7.5 -4.143,0 -7.5,3.358 -7.5,7.5 V 497 H 190.667 V 97.833 H 248.5 v 184.583 c 0,4.142 3.357,7.5 7.5,7.5 4.143,0 7.5,-3.358 7.5,-7.5 V 15 h 57.833 z"
         inkscape:connector-curvature="0" />
    </g>
  </g>
</svg>
